<svg xmlns="http://www.w3.org/2000/svg">
  <symbol viewBox="0 0 16 24" id="chevron-left">
    <title>chevron-left</title>
    <polygon points="0,12 12,24 16,20 8,12 16,4 12,0 0,12 0,12 " />
  </symbol>
  <symbol viewBox="0 0 16 24" id="chevron-right">
    <title>chevron-right</title>
    <polygon points="16,12 4,0 0,4 8,12 0,20 4,24 16,12 16,12 " />
  </symbol>
  <symbol viewBox="0 0 24 24" id="close">
    <title>close</title>
    <polygon points="24,4 20,0 12,8 4,0 0,4 8,12 0,20 4,24 12,16 20,24 24,20 16,12 " />
  </symbol>
  <symbol viewBox="0 0 300 120" id="logo">
    <title>logo</title>
    <g>
      <g>
        <path d="M97.2,3.5h-3.9c-0.3,0-0.5-0.2-0.5-0.5V0.9c0-0.3,0.2-0.5,0.5-0.5h11.2c0.3,0,0.5,0.2,0.5,0.5V3c0,0.3-0.2,0.5-0.5,0.5

			h-3.9v14.4c0,0.3-0.2,0.5-0.5,0.5h-2.4c-0.3,0-0.5-0.2-0.5-0.5V3.5z" />
        <path d="M111.7,0.9c0-0.3,0.2-0.5,0.5-0.5h2.4c0.3,0,0.5,0.2,0.5,0.5v6.8h8.4V0.9c0-0.3,0.2-0.5,0.5-0.5h2.4

			c0.3,0,0.5,0.2,0.5,0.5v17c0,0.3-0.2,0.5-0.5,0.5h-2.4c-0.3,0-0.5-0.2-0.5-0.5v-7.1h-8.4v7.1c0,0.3-0.2,0.5-0.5,0.5h-2.4

			c-0.3,0-0.5-0.2-0.5-0.5V0.9z" />
        <path d="M135,0.9c0-0.3,0.2-0.5,0.5-0.5h10.5c0.3,0,0.5,0.2,0.5,0.5V3c0,0.3-0.2,0.5-0.5,0.5h-7.6v4.2h6.3c0.3,0,0.5,0.2,0.5,0.5

			v2.1c0,0.3-0.2,0.5-0.5,0.5h-6.3v4.5h7.6c0.3,0,0.5,0.2,0.5,0.5v2.1c0,0.3-0.2,0.5-0.5,0.5h-10.5c-0.3,0-0.5-0.2-0.5-0.5V0.9z" />
      </g>
      <g>
        <path d="M82.7,49.6c2.4-6.1,4.6-13.4,4.6-18.5c0-4.4-1.5-7.5-6-7.5c-5.6,0-14.6,6.6-25.8,24.6L61,34.7c2.6-6.4,5.2-13.8,5.2-19.1

			c0-4.1-1.5-7-5.9-7c-5.5,0-14.8,6.5-25.9,24l2.7-6.4c2.7-6.4,5.2-13.8,5.2-19.1c0-4.2-1.5-7-5.9-7C29.3,0,14.6,8.5,0,24.2l1.2,7.3

			C22.1,2.2,35.4,2.2,35.4,2.2c1.2,0,1.6,0.8,1.6,2.4c0,4.2-3.7,13.2-7.2,21.6l-26,63.4h7.1l17.2-41.8

			c19.3-37.2,31.3-37.2,31.3-37.2c1.2,0,1.6,1,1.6,2.5c0,4.2-3.8,13.2-7.2,21.6L31.6,89.5h7.3l10.9-27.2c19.2-36.6,31-36.7,31-36.7

			c1.2,0,1.7,1,1.7,2.5c0,4.2-3.6,13.2-7.1,21.4l-9.9,24C62.8,80.6,59.2,89,59.2,95c0,3.7,1.6,7.3,6.6,7.3c2.6,0,6-0.7,11.7-7.7

			L75.8,93c-4.6,5.5-7.6,6.6-8.5,6.6c-1.5,0-2.1-1.1-2.1-2.7c0-3.7,3.3-11.4,8-23.5L82.7,49.6z" />
        <path d="M154.4,33.7c2.8,0,4.5-2.9,4.5-5.4c0-2.3-1.4-4.2-3.6-4.2c-2.2,0-4.7,2-4.7,5.3C150.7,31.5,152.2,33.7,154.4,33.7z" />
        <path d="M266,33.7c2.8,0,4.5-2.9,4.5-5.4c0-2.3-1.4-4.2-3.6-4.2c-2.2,0-4.7,2-4.7,5.3C262.3,31.5,263.8,33.7,266,33.7z" />
        <path d="M298.6,67c-12.2,15.8-19.5,20.1-24.9,20.1c-2.8,0-4.8-1.2-4.8-5.3c0-10.3,13.3-32.3,20.5-32.3c1.3,0,2,1,2,2.4

			c0,2.4-1.7,6.3-4.5,9.9c2.9,0,9.4-3.6,10.1-6.7c0.1-0.7,0.1-1.3,0.1-1.9c0-4.2-3-5.9-5.7-5.9c-5.7,0-19.6,7.5-25.8,19.5l-10,12.8

			c-1.6,2.2-3.3,3.2-4.3,3.2c-0.7,0-1.2-0.2-1.2-1.1c0-0.6,0.4-1.5,0.6-2.2l9.5-23.8c0.8-2,1.4-4,1.4-5.4c0-1.4-0.9-3-3.1-3

			c-2.3,0-4.4,2.3-6.4,4.8l-21.5,27.4c-1.6,2.2-4.1,4.3-5.7,4.3c-1,0-1.6-0.7-1.6-1.7c0-0.7,0.5-1.9,0.7-2.6l17.5-43h15.9l1.2-2.4

			h-16.2l4.5-11.1h-6.9l-4.4,11.1h-13.9l-1,2.4h13.8c-3.6,7.5-6.7,14.3-20.8,32.3l0,0c-5.9,7.2-11.6,11.9-16.8,14.8

			c5.8-5.8,10.2-14.7,10.2-23.5c0-7-2.3-11.6-2.3-12.8c0-1.1,2.6-4.1,2.6-5.2c0-1.7-1.4-2-2.3-2c-3.5,0-7.8,4.4-7.8,8.1

			c0,0.8,0.2,1.6,0.7,2.4c-2.9,4.2-6.7,9.4-12,16.4c-12.2,15.7-19.5,20-24.8,20c-2.2,0-4.1-1.2-4.1-5.4c0-2.3,0.6-5.1,1.6-7.9

			c9.6-0.1,24.2-9.4,24.2-19.9c0-3.9-1.7-6.6-5.7-6.6c-6.2,0-17.9,8.2-23.4,19.7l0,0c-6.7,8.7-12.8,14.6-17.8,19l12.7-30.2

			c0.8-2,1.4-4,1.4-5.4c0-1.4-0.9-3-3.1-3c-2.3,0-4.4,2.3-6.4,4.8l-21.5,27.4c-1.6,2.2-3.3,3.2-4.3,3.2c-0.7,0-1.2-0.2-1.2-1.1

			c0-0.6,0.3-1.5,0.6-2.2c1.3-2.9,9.6-24.7,10.6-26.7c0.3-0.8,0.7-2,0.7-3.1c0-1.2-0.6-2.2-2.1-2.2c-3,0-4.5,2.5-11.3,11.9

			c-6.5,9.1-16.8,22.9-19.3,22.9c-0.7,0-1.2-1.1-1.2-2.5c0-7.8,11.2-27.4,24.9-31.7v-1.1c-16.6,1.7-33.5,23.8-33.5,35.9

			c0,5.5,2.8,6.7,4.6,6.7c2.8,0,5.5-2.3,9.1-6c4.2-4.3,14.9-20.6,16.3-22.4c0.4-0.6,0.8-0.8,1-0.8s0.4,0.2,0.4,0.6

			c0,0.6-4.8,12.5-6.5,16.6c-1.6,3.7-2.6,6-2.6,8.3c0,2.2,1.6,3.6,4,3.6c2.9,0,5.3-1.3,9.1-6l22.1-28.3c0.4-0.5,0.6-0.7,1-0.7

			c0.2,0,0.6,0.2,0.6,0.7c0,0.1,0,0.4-0.1,0.6c-1.2,2.9-27.8,64.2-27.8,64.2l8.6-2.4l11.5-27.5c6.2-5.4,11.5-10.4,17.4-17.5

			c-0.6,2.3-1,4.7-1,7.1c0,7.9,6,9.8,9.6,9.8c3.6,0,11-0.6,25.8-19.5l0,0c0.1-0.2,10.5-14,12.9-17.6c1.1,2,2.1,4.8,2.1,9.3

			c0,10.3-4.9,22.7-11.2,22.7c-2.2,0,0.8-4.7-2.2-4.7c-2.4,0-6.6,4.8-6.6,7.2c0,2.2,2.1,2.5,3.8,2.5c1.3,0,2.4-0.2,3.8-0.6

			c8-2.3,17.7-8.3,26.4-18.9l0,0c0.2-0.3,1.8-2.3,1.8-2.3c6.2-8,9.7-13.1,11.9-16.6l-10.7,26.5c-1.6,3.9-2.4,5.9-2.4,7.8

			c0,2.8,2.4,4.1,4.8,4.1c2.9,0,6.3-2,9.9-6.7L252,55.2c0.4-0.5,0.6-0.7,1-0.7c0.2,0,0.6,0.2,0.6,0.7c0,0.1,0,0.4-0.1,0.6l-9.1,21.8

			c-1.6,3.9-2.6,6.4-2.6,8.3c0,2.2,1.6,3.6,4,3.6c2.9,0,5.3-1.3,9.1-6l8.4-10.7c-0.5,1.9-0.8,4-0.8,6.1c0,10,8.9,10.6,10.5,10.6

			c4,0,11.4-0.6,27.1-21.4L298.6,67z M175.3,49.7c1,0,1.9,0.6,1.9,2.6c0,7.1-7.2,17.9-18,19.7C163.1,61.6,171.3,49.7,175.3,49.7z" />
      </g>
    </g>
  </symbol>
  <symbol viewBox="0 0 56 37" id="npl">
    <title>npl</title>
    <g>
      <g>
        <path d="M21.6,16.2c-0.2-0.3-0.6-0.1-0.6,0.2v11.2h1v-9.2l6.9,9.4c0.2,0.3,0.6,0.1,0.6-0.2v-11h-1v9L21.6,16.2z" />
        <path d="M32.7,16.7c0,1.3,1.1,2.3,2.3,2.3c1.3,0,2.3-1,2.3-2.3c0-1.3-1.1-2.3-2.3-2.3
			C33.7,14.4,32.7,15.5,32.7,16.7z M36.3,16.7c0,0.7-0.6,1.3-1.3,1.3c-0.7,0-1.3-0.6-1.3-1.3c0-0.7,0.6-1.3,1.3-1.3
			C35.7,15.4,36.3,16,36.3,16.7z" />
        <path d="M56,4.5c0.1-1.3-1-2.4-2.2-2.4l-0.1,0c-1.3,0-2.3,1-2.3,2.2c0,1,0.5,1.8,1.3,2.2c-2.3,1.2-7,2.9-13.5,2.7
			c-0.7-0.3-1.4-0.6-2.1-0.8c7.1-1,11-4.1,11.2-4.2l0,0c0.5-0.4,0.9-1,0.9-1.7c0.1-1.3-1-2.4-2.2-2.4l-0.1,0c-1.3,0-2.3,1-2.3,2.2
			c0,1,0.6,1.9,1.4,2.2c-2.3,1.3-6.9,3.2-13.4,3.2C32.2,7.7,0,7.9,0,28.3v0.9l0.8-0.4c7.8-4.5,15.7-1.3,17.2-0.6
			c2.3,4.9,7.4,8.5,13.6,8.8l0.5,0v-8.9h3c2.1,0,3.7-1.7,3.7-3.7s-1.7-3.7-3.7-3.7h-4v15.3c-7.6-0.7-13.4-6.6-13.4-13.6
			c0-7.5,6.7-13.6,15-13.6s15,6.7,15,14.9c0,1.2-0.1,2.4-0.4,3.6h-5.6v-11h-1v12h7.3l0.1-0.4c0.4-1.4,0.6-2.8,0.6-4.3
			c0-5.6-3-10.6-7.4-13.4c8.4-0.2,13.3-3.5,13.8-3.8C55.5,5.9,56,5.3,56,4.5z M32,21.7h3c1.5,0,2.7,1.2,2.7,2.7s-1.2,2.7-2.7,2.7h-3
			V21.7z M46.8,3.7c-0.7,0-1.3-0.7-1.3-1.4c0-0.7,0.6-1.3,1.4-1.3c0,0,0,0,0,0c0.7,0,1.3,0.7,1.3,1.4C48.2,3.1,47.6,3.7,46.8,3.7
			L46.8,3.7z M16.6,22.4c0,1.6,0.3,3.1,0.8,4.5c-2.7-1.1-9.5-2.9-16.3,0.6C1.7,14.7,16.2,10.6,25.3,9.3
			C20.1,11.7,16.6,16.7,16.6,22.4z M53.6,5.7c-0.7,0-1.3-0.7-1.3-1.4c0-0.7,0.6-1.3,1.4-1.3c0,0,0,0,0,0c0.7,0,1.3,0.7,1.3,1.4
			C55,5.1,54.4,5.7,53.6,5.7L53.6,5.7z" />
      </g>
    </g>
  </symbol>
  <symbol viewBox="0 0 16 16" id="zoom-in">
    <title>zoom-in</title>
    <g>
      <path d="M16,6.1H9.9V0H6.1v6.1H0v3.8h6.1V16h3.8V9.9H16V6.1z" />
    </g>
  </symbol>
  <symbol viewBox="0 0 16 3.8" id="zoom-out">
    <title>zoom-out</title>
    <g>
      <path d="M16,0H0v3.8h16V0z" />
    </g>
  </symbol>
</svg>