<svg xmlns="http://www.w3.org/2000/svg"><symbol viewBox="0 0 21 19.6" id="address"><title>address</title><path d="M6.2 11.3h2.2v2.2H6.2zM20.6 8.2L11.3.3c-.4-.4-1-.4-1.5 0L.4 8.2c-.5.4-.5 1.1-.1 1.6s1.1.5 1.6.1l.2-.1v9.1c0 .4.3.7.7.7h15.5c.4 0 .7-.3.7-.7V9.8l.2.1c.2.2.5.3.8.3s.6-.1.9-.4c.2-.5.2-1.2-.3-1.6zm-3.1 10h-2.7v-7h-3.9v7H3.5V8.6l7-6 7 6v9.6z"/></symbol><symbol viewBox="0 0 16 24" id="chevron-left"><title>chevron-left</title><path d="M0 12l12 12 4-4-8-8 8-8-4-4L0 12z"/></symbol><symbol viewBox="0 0 16 24" id="chevron-right"><title>chevron-right</title><path d="M16 12L4 0 0 4l8 8-8 8 4 4 12-12z"/></symbol><symbol viewBox="0 0 24 24" id="close"><title>close</title><path d="M24 4l-4-4-8 8-8-8-4 4 8 8-8 8 4 4 8-8 8 8 4-4-8-8z"/></symbol><symbol viewBox="0 0 21 13.4" id="email"><title>email</title><path d="M20.2 0H.8C.4 0 0 .4 0 .8v11.8c0 .5.4.8.8.8h19.3c.5 0 .8-.4.8-.8V.8c.1-.4-.3-.8-.7-.8zm0 .8v1.5l-9.3 6h-.1c-.2.2-.4.2-.6 0h-.1l-9.3-6V.8h19.4zM.8 12.6V3.3L9.7 9c.2.2.5.3.8.3.3 0 .6-.1.8-.3l8.8-5.7v9.3H.8z"/></symbol><symbol viewBox="0 0 20.9 21" id="facebook"><title>facebook</title><path d="M19.3 0H1.6C.7 0 0 .7 0 1.6v17.9c0 .8.7 1.5 1.6 1.5h17.7c.9 0 1.6-.7 1.6-1.6V1.6C21 .8 20.2 0 19.3 0zM11 7c-.5-.3-.9-.5-1.4-.5s-.9.1-1.1.3c-.2.2-.3.6-.3 1.2v.9h2.7l-.6 2.5H8.2v8.1H4.8v-8.2H3.2V8.8h1.6v-.9c0-1 .1-1.6.3-2.1.3-.5.7-1 1.3-1.3C7 4.2 8 4 8.9 4c1 0 1.8.3 2.7.6L11 7z"/></symbol><symbol viewBox="0 0 21 21" id="fax"><title>fax</title><path d="M15.3 20.2H5.6v-6.1h-.9v6.5c0 .1 0 .2.1.3s.2.1.3.1h10.6c.3 0 .4-.2.4-.4v-6.5h-.9l.1 6.1zM19.1 2.1h-3v-.4c0-.1 0-.2-.1-.3L14.9.2c-.1-.1-.2-.2-.3-.2H5.2c-.3 0-.4.2-.4.4V2h-3C.8 2 0 2.8 0 3.8v7.6c0 1 .8 1.8 1.8 1.8h17.4c1 0 1.8-.8 1.8-1.8V3.8c-.1-.9-.9-1.7-1.9-1.7zM7.8 10.9v-2h5.5v2H7.8zm7.5-6.2H5.6V1h8.8l.9.9v2.8zm2.5 6c-.2 0-.3-.2-.3-.3 0-.2.2-.3.3-.3.2 0 .3.2.3.3 0 .2-.1.3-.3.3zM7.3 18.9h6.3c.2 0 .3-.1.3-.3s-.1-.3-.3-.3H7.3c-.2 0-.3.1-.3.3s.1.3.3.3zM7.3 17.2h6.3c.2 0 .3-.1.3-.3s-.1-.3-.3-.3H7.3c-.2 0-.3.1-.3.3 0 .1.1.3.3.3zM7.3 15.4h6.3c.2 0 .3-.1.3-.3s-.1-.3-.3-.3H7.3c-.2 0-.3.1-.3.3s.1.3.3.3z"/></symbol><symbol viewBox="0 0 300 120" id="logo"><title>logo</title><path d="M97.2 3.5h-3.9c-.3 0-.5-.2-.5-.5V.9c0-.3.2-.5.5-.5h11.2c.3 0 .5.2.5.5V3c0 .3-.2.5-.5.5h-3.9v14.4c0 .3-.2.5-.5.5h-2.4c-.3 0-.5-.2-.5-.5V3.5zM111.7.9c0-.3.2-.5.5-.5h2.4c.3 0 .5.2.5.5v6.8h8.4V.9c0-.3.2-.5.5-.5h2.4c.3 0 .5.2.5.5v17c0 .3-.2.5-.5.5H124c-.3 0-.5-.2-.5-.5v-7.1h-8.4v7.1c0 .3-.2.5-.5.5h-2.4c-.3 0-.5-.2-.5-.5V.9zM135 .9c0-.3.2-.5.5-.5H146c.3 0 .5.2.5.5V3c0 .3-.2.5-.5.5h-7.6v4.2h6.3c.3 0 .5.2.5.5v2.1c0 .3-.2.5-.5.5h-6.3v4.5h7.6c.3 0 .5.2.5.5v2.1c0 .3-.2.5-.5.5h-10.5c-.3 0-.5-.2-.5-.5V.9zM82.7 49.6c2.4-6.1 4.6-13.4 4.6-18.5 0-4.4-1.5-7.5-6-7.5-5.6 0-14.6 6.6-25.8 24.6L61 34.7c2.6-6.4 5.2-13.8 5.2-19.1 0-4.1-1.5-7-5.9-7-5.5 0-14.8 6.5-25.9 24l2.7-6.4c2.7-6.4 5.2-13.8 5.2-19.1 0-4.2-1.5-7-5.9-7C29.3 0 14.6 8.5 0 24.2l1.2 7.3C22.1 2.2 35.4 2.2 35.4 2.2c1.2 0 1.6.8 1.6 2.4 0 4.2-3.7 13.2-7.2 21.6l-26 63.4h7.1l17.2-41.8c19.3-37.2 31.3-37.2 31.3-37.2 1.2 0 1.6 1 1.6 2.5 0 4.2-3.8 13.2-7.2 21.6L31.6 89.5h7.3l10.9-27.2c19.2-36.6 31-36.7 31-36.7 1.2 0 1.7 1 1.7 2.5 0 4.2-3.6 13.2-7.1 21.4l-9.9 24C62.8 80.6 59.2 89 59.2 95c0 3.7 1.6 7.3 6.6 7.3 2.6 0 6-.7 11.7-7.7L75.8 93c-4.6 5.5-7.6 6.6-8.5 6.6-1.5 0-2.1-1.1-2.1-2.7 0-3.7 3.3-11.4 8-23.5l9.5-23.8zM154.4 33.7c2.8 0 4.5-2.9 4.5-5.4 0-2.3-1.4-4.2-3.6-4.2s-4.7 2-4.7 5.3c.1 2.1 1.6 4.3 3.8 4.3zM266 33.7c2.8 0 4.5-2.9 4.5-5.4 0-2.3-1.4-4.2-3.6-4.2s-4.7 2-4.7 5.3c.1 2.1 1.6 4.3 3.8 4.3zM298.6 67c-12.2 15.8-19.5 20.1-24.9 20.1-2.8 0-4.8-1.2-4.8-5.3 0-10.3 13.3-32.3 20.5-32.3 1.3 0 2 1 2 2.4 0 2.4-1.7 6.3-4.5 9.9 2.9 0 9.4-3.6 10.1-6.7.1-.7.1-1.3.1-1.9 0-4.2-3-5.9-5.7-5.9-5.7 0-19.6 7.5-25.8 19.5l-10 12.8c-1.6 2.2-3.3 3.2-4.3 3.2-.7 0-1.2-.2-1.2-1.1 0-.6.4-1.5.6-2.2l9.5-23.8c.8-2 1.4-4 1.4-5.4 0-1.4-.9-3-3.1-3-2.3 0-4.4 2.3-6.4 4.8l-21.5 27.4c-1.6 2.2-4.1 4.3-5.7 4.3-1 0-1.6-.7-1.6-1.7 0-.7.5-1.9.7-2.6l17.5-43h15.9l1.2-2.4h-16.2l4.5-11.1H240l-4.4 11.1h-13.9l-1 2.4h13.8c-3.6 7.5-6.7 14.3-20.8 32.3-5.9 7.2-11.6 11.9-16.8 14.8 5.8-5.8 10.2-14.7 10.2-23.5 0-7-2.3-11.6-2.3-12.8 0-1.1 2.6-4.1 2.6-5.2 0-1.7-1.4-2-2.3-2-3.5 0-7.8 4.4-7.8 8.1 0 .8.2 1.6.7 2.4-2.9 4.2-6.7 9.4-12 16.4-12.2 15.7-19.5 20-24.8 20-2.2 0-4.1-1.2-4.1-5.4 0-2.3.6-5.1 1.6-7.9 9.6-.1 24.2-9.4 24.2-19.9 0-3.9-1.7-6.6-5.7-6.6-6.2 0-17.9 8.2-23.4 19.7-6.7 8.7-12.8 14.6-17.8 19l12.7-30.2c.8-2 1.4-4 1.4-5.4 0-1.4-.9-3-3.1-3-2.3 0-4.4 2.3-6.4 4.8l-21.5 27.4c-1.6 2.2-3.3 3.2-4.3 3.2-.7 0-1.2-.2-1.2-1.1 0-.6.3-1.5.6-2.2 1.3-2.9 9.6-24.7 10.6-26.7.3-.8.7-2 .7-3.1 0-1.2-.6-2.2-2.1-2.2-3 0-4.5 2.5-11.3 11.9-6.5 9.1-16.8 22.9-19.3 22.9-.7 0-1.2-1.1-1.2-2.5 0-7.8 11.2-27.4 24.9-31.7v-1.1C99.9 48.6 83 70.7 83 82.8c0 5.5 2.8 6.7 4.6 6.7 2.8 0 5.5-2.3 9.1-6 4.2-4.3 14.9-20.6 16.3-22.4.4-.6.8-.8 1-.8s.4.2.4.6c0 .6-4.8 12.5-6.5 16.6-1.6 3.7-2.6 6-2.6 8.3 0 2.2 1.6 3.6 4 3.6 2.9 0 5.3-1.3 9.1-6l22.1-28.3c.4-.5.6-.7 1-.7.2 0 .6.2.6.7 0 .1 0 .4-.1.6-1.2 2.9-27.8 64.2-27.8 64.2l8.6-2.4L134.3 90c6.2-5.4 11.5-10.4 17.4-17.5-.6 2.3-1 4.7-1 7.1 0 7.9 6 9.8 9.6 9.8 3.6 0 11-.6 25.8-19.5.1-.2 10.5-14 12.9-17.6 1.1 2 2.1 4.8 2.1 9.3 0 10.3-4.9 22.7-11.2 22.7-2.2 0 .8-4.7-2.2-4.7-2.4 0-6.6 4.8-6.6 7.2 0 2.2 2.1 2.5 3.8 2.5 1.3 0 2.4-.2 3.8-.6 8-2.3 17.7-8.3 26.4-18.9.2-.3 1.8-2.3 1.8-2.3 6.2-8 9.7-13.1 11.9-16.6l-10.7 26.5c-1.6 3.9-2.4 5.9-2.4 7.8 0 2.8 2.4 4.1 4.8 4.1 2.9 0 6.3-2 9.9-6.7L252 55.2c.4-.5.6-.7 1-.7.2 0 .6.2.6.7 0 .1 0 .4-.1.6l-9.1 21.8c-1.6 3.9-2.6 6.4-2.6 8.3 0 2.2 1.6 3.6 4 3.6 2.9 0 5.3-1.3 9.1-6l8.4-10.7c-.5 1.9-.8 4-.8 6.1 0 10 8.9 10.6 10.5 10.6 4 0 11.4-.6 27.1-21.4l-1.5-1.1zM175.3 49.7c1 0 1.9.6 1.9 2.6 0 7.1-7.2 17.9-18 19.7 3.9-10.4 12.1-22.3 16.1-22.3z"/></symbol><symbol viewBox="0 0 56 37" id="npl"><title>npl</title><path d="M21.6 16.2c-.2-.3-.6-.1-.6.2v11.2h1v-9.2l6.9 9.4c.2.3.6.1.6-.2v-11h-1v9l-6.9-9.4zM32.7 16.7c0 1.3 1.1 2.3 2.3 2.3 1.3 0 2.3-1 2.3-2.3 0-1.3-1.1-2.3-2.3-2.3-1.3 0-2.3 1.1-2.3 2.3zm3.6 0c0 .7-.6 1.3-1.3 1.3-.7 0-1.3-.6-1.3-1.3 0-.7.6-1.3 1.3-1.3.7 0 1.3.6 1.3 1.3zM56 4.5c.1-1.3-1-2.4-2.2-2.4h-.1c-1.3 0-2.3 1-2.3 2.2 0 1 .5 1.8 1.3 2.2-2.3 1.2-7 2.9-13.5 2.7-.7-.3-1.4-.6-2.1-.8 7.1-1 11-4.1 11.2-4.2.5-.4.9-1 .9-1.7.1-1.3-1-2.4-2.2-2.4h-.1c-1.3 0-2.3 1-2.3 2.2 0 1 .6 1.9 1.4 2.2-2.3 1.3-6.9 3.2-13.4 3.2-.4 0-32.6.2-32.6 20.6v.9l.8-.4c7.8-4.5 15.7-1.3 17.2-.6 2.3 4.9 7.4 8.5 13.6 8.8h.5v-8.9h3c2.1 0 3.7-1.7 3.7-3.7s-1.7-3.7-3.7-3.7h-4V36c-7.6-.7-13.4-6.6-13.4-13.6 0-7.5 6.7-13.6 15-13.6s15 6.7 15 14.9c0 1.2-.1 2.4-.4 3.6h-5.6v-11h-1v12H48l.1-.4c.4-1.4.6-2.8.6-4.3 0-5.6-3-10.6-7.4-13.4 8.4-.2 13.3-3.5 13.8-3.8.4-.5.9-1.1.9-1.9zM32 21.7h3c1.5 0 2.7 1.2 2.7 2.7s-1.2 2.7-2.7 2.7h-3v-5.4zm14.8-18c-.7 0-1.3-.7-1.3-1.4S46.1 1 46.9 1c.7 0 1.3.7 1.3 1.4s-.6 1.3-1.4 1.3zM16.6 22.4c0 1.6.3 3.1.8 4.5-2.7-1.1-9.5-2.9-16.3.6.6-12.8 15.1-16.9 24.2-18.2-5.2 2.4-8.7 7.4-8.7 13.1zm37-16.7c-.7 0-1.3-.7-1.3-1.4S52.9 3 53.7 3c.7 0 1.3.7 1.3 1.4s-.6 1.3-1.4 1.3z"/></symbol><symbol viewBox="0 0 21.1 21" id="phone"><title>phone</title><path d="M21.1 6.4C20.4.2 15.2 0 14.6 0H6.5C5.9 0 .7.2 0 6.4c0 .1 0 .3.1.3s.2.2.3.1l5.4-.1c.3 0 .4-.2.4-.4 0-.7.3-2.6 1.2-2.6h5.7c.9 0 1.2 1.9 1.2 2.6 0 .3.2.4.4.4l5.4.2c.1 0 .3 0 .3-.1.7-.1.7-.3.7-.4zm-1.2 8.3v-.2l-6.3-7V6.4c0-.4-.3-.8-.8-.8s-.8.3-.8.8v1.1H9.2V6.4c0-.4-.3-.8-.8-.8s-.8.3-.8.8v1.1l-6.2 7v4.1c0 .3.2.5.5.5H3v1.1c0 .4.3.8.8.8s.8-.3.8-.8v-1.1H17v1.1c0 .4.3.8.8.8s.8-.3.8-.8v-1.1h1.1c.3 0 .5-.2.5-.5v-3.9c-.3.1-.3.1-.3 0zm-13-1c0-.3.3-.6.6-.6s.6.3.6.6-.3.6-.6.6-.6-.3-.6-.6zm2 2.6c-.3.3-.6.3-.9 0s-.3-.6 0-.9c.3-.3.6-.3.9 0 .2.2.2.6 0 .9zm0-4.3c-.3.3-.6.3-.9 0s-.3-.6 0-.9c.3-.3.6-.3.9 0 .2.3.2.7 0 .9zm1.7-1.9c.3 0 .6.3.6.6s-.3.6-.6.6-.6-.3-.6-.6c0-.4.3-.6.6-.6zm0 7.2c-.3 0-.6-.3-.6-.6s.3-.6.6-.6.6.3.6.6-.3.6-.6.6zm0-2.3c-.7 0-1.2-.5-1.2-1.2s.6-1.2 1.2-1.2 1.2.5 1.2 1.2c0 .6-.5 1.2-1.2 1.2zm1.7-3.9c.3-.3.6-.3.9 0s.3.6 0 .9c-.3.3-.6.3-.9 0-.2-.2-.2-.6 0-.9zm.9 5.2c-.3.3-.6.3-.9 0s-.3-.6 0-.9c.3-.3.6-.3.9 0 .3.2.3.6 0 .9zm.5-2c-.3 0-.6-.3-.6-.6s.3-.6.6-.6.6.3.6.6-.3.6-.6.6z"/></symbol><symbol viewBox="0 0 16 16" id="zoom-in"><title>zoom-in</title><path d="M16 6.1H9.9V0H6.1v6.1H0v3.8h6.1V16h3.8V9.9H16V6.1z"/></symbol><symbol viewBox="0 0 16 3.8" id="zoom-out"><title>zoom-out</title><path d="M16 0H0v3.8h16V0z"/></symbol></svg>