<?xml version="1.0" encoding="utf-8"?>
<!-- Generator: Adobe Illustrator 18.0.0, SVG Export Plug-In . SVG Version: 6.00 Build 0)  -->
<!DOCTYPE svg PUBLIC "-//W3C//DTD SVG 1.1//EN" "http://www.w3.org/Graphics/SVG/1.1/DTD/svg11.dtd">
<svg version="1.1" id="Layer_1" xmlns="http://www.w3.org/2000/svg" xmlns:xlink="http://www.w3.org/1999/xlink" x="0px" y="0px"
	 width="21px" height="19.6px" viewBox="0 0 21 19.6" enable-background="new 0 0 21 19.6" xml:space="preserve">
<g>
	<rect x="6.2" y="11.3" width="2.2" height="2.2"/>
	<path d="M20.6,8.2l-9.3-7.9c-0.4-0.4-1-0.4-1.5,0L0.4,8.2c-0.5,0.4-0.5,1.1-0.1,1.6c0.4,0.5,1.1,0.5,1.6,0.1
		l0.2-0.1v9.1c0,0.4,0.3,0.7,0.7,0.7h15.5c0.4,0,0.7-0.3,0.7-0.7V9.8l0.2,0.1c0.2,0.2,0.5,0.3,0.8,0.3s0.6-0.1,0.9-0.4
		C21.1,9.3,21.1,8.6,20.6,8.2z M17.5,18.2h-2.7v-7h-3.9v7H3.5V8.6l7-6l7,6V18.2z"/>
</g>
<g>
</g>
<g>
</g>
<g>
</g>
<g>
</g>
<g>
</g>
</svg>
