<?xml version="1.0" encoding="utf-8"?>
<!-- Generator: Adobe Illustrator 18.0.0, SVG Export Plug-In . SVG Version: 6.00 Build 0)  -->
<!DOCTYPE svg PUBLIC "-//W3C//DTD SVG 1.1//EN" "http://www.w3.org/Graphics/SVG/1.1/DTD/svg11.dtd">
<svg version="1.1" id="Layer_1" xmlns="http://www.w3.org/2000/svg" xmlns:xlink="http://www.w3.org/1999/xlink" x="0px" y="0px"
	 width="21px" height="13.4px" viewBox="0 0 21 13.4" enable-background="new 0 0 21 13.4" xml:space="preserve">
<path d="M20.2,0H0.8C0.4,0,0,0.4,0,0.8v11.8c0,0.5,0.4,0.8,0.8,0.8h19.3c0.5,0,0.8-0.4,0.8-0.8V0.8
	C21,0.4,20.6,0,20.2,0z M20.2,0.8v1.5l-9.3,6c0,0,0,0-0.1,0c-0.2,0.2-0.4,0.2-0.6,0c0,0,0,0-0.1,0l-9.3-6V0.8H20.2z M0.8,12.6V3.3
	L9.7,9c0.2,0.2,0.5,0.3,0.8,0.3c0.3,0,0.6-0.1,0.8-0.3l8.8-5.7v9.3H0.8z"/>
<g>
</g>
<g>
</g>
<g>
</g>
<g>
</g>
<g>
</g>
</svg>
