<?xml version="1.0" encoding="utf-8"?>
<!-- Generator: Adobe Illustrator 18.0.0, SVG Export Plug-In . SVG Version: 6.00 Build 0)  -->
<!DOCTYPE svg PUBLIC "-//W3C//DTD SVG 1.1//EN" "http://www.w3.org/Graphics/SVG/1.1/DTD/svg11.dtd">
<svg version="1.1" id="Layer_1" xmlns="http://www.w3.org/2000/svg" xmlns:xlink="http://www.w3.org/1999/xlink" x="0px" y="0px"
	 width="20.9px" height="21px" viewBox="0 0 20.9 21" enable-background="new 0 0 20.9 21" xml:space="preserve">
<path d="M19.3,0H1.6C0.7,0,0,0.7,0,1.6v17.9C0,20.3,0.7,21,1.6,21h17.7c0.9,0,1.6-0.7,1.6-1.6V1.6
	C21,0.8,20.2,0,19.3,0z M11,7c-0.5-0.3-0.9-0.5-1.4-0.5S8.7,6.6,8.5,6.8C8.3,7,8.2,7.4,8.2,8v0.9h2.7l-0.6,2.5H8.2v8.1H4.8v-8.2H3.2
	V8.8h1.6V7.9c0-1,0.1-1.6,0.3-2.1c0.3-0.5,0.7-1,1.3-1.3C7,4.2,8,4,8.9,4c1,0,1.8,0.3,2.7,0.6L11,7z"/>
<g>
</g>
<g>
</g>
<g>
</g>
<g>
</g>
<g>
</g>
</svg>
