<?xml version="1.0" encoding="utf-8"?>
<!-- Generator: Adobe Illustrator 18.0.0, SVG Export Plug-In . SVG Version: 6.00 Build 0)  -->
<!DOCTYPE svg PUBLIC "-//W3C//DTD SVG 1.1//EN" "http://www.w3.org/Graphics/SVG/1.1/DTD/svg11.dtd">
<svg version="1.1" id="Layer_1" xmlns="http://www.w3.org/2000/svg" xmlns:xlink="http://www.w3.org/1999/xlink" x="0px" y="0px"
	 width="21px" height="21px" viewBox="0 0 21 21" enable-background="new 0 0 21 21" xml:space="preserve">
<path d="M15.3,20.2H5.6v-6.1H4.7v6.5c0,0.1,0,0.2,0.1,0.3S5,21,5.1,21h10.6c0.3,0,0.4-0.2,0.4-0.4v-6.5h-0.9
	L15.3,20.2L15.3,20.2z"/>
<path d="M19.1,2.1h-3V1.7c0-0.1,0-0.2-0.1-0.3l-1.1-1.2C14.8,0.1,14.7,0,14.6,0H5.2C4.9,0,4.8,0.2,4.8,0.4V2h-3
	C0.8,2,0,2.8,0,3.8v7.6c0,1,0.8,1.8,1.8,1.8h17.4c1,0,1.8-0.8,1.8-1.8V3.8C20.9,2.9,20.1,2.1,19.1,2.1z M7.8,10.9v-2h5.5v2H7.8z
	 M15.3,4.7H5.6V1h8.8l0.9,0.9V4.7z M17.8,10.7c-0.2,0-0.3-0.2-0.3-0.3c0-0.2,0.2-0.3,0.3-0.3c0.2,0,0.3,0.2,0.3,0.3
	C18.1,10.6,18,10.7,17.8,10.7z"/>
<path d="M7.3,18.9h6.3c0.2,0,0.3-0.1,0.3-0.3s-0.1-0.3-0.3-0.3H7.3c-0.2,0-0.3,0.1-0.3,0.3S7.1,18.9,7.3,18.9z"/>
<path d="M7.3,17.2h6.3c0.2,0,0.3-0.1,0.3-0.3s-0.1-0.3-0.3-0.3H7.3c-0.2,0-0.3,0.1-0.3,0.3C7,17,7.1,17.2,7.3,17.2z"
	/>
<path d="M7.3,15.4h6.3c0.2,0,0.3-0.1,0.3-0.3s-0.1-0.3-0.3-0.3H7.3c-0.2,0-0.3,0.1-0.3,0.3S7.1,15.4,7.3,15.4z"/>
<g>
</g>
<g>
</g>
<g>
</g>
<g>
</g>
<g>
</g>
</svg>
