<?xml version="1.0" encoding="utf-8"?>
<!-- Generator: Adobe Illustrator 18.0.0, SVG Export Plug-In . SVG Version: 6.00 Build 0)  -->
<!DOCTYPE svg PUBLIC "-//W3C//DTD SVG 1.1//EN" "http://www.w3.org/Graphics/SVG/1.1/DTD/svg11.dtd">
<svg version="1.1" id="Layer_1" xmlns="http://www.w3.org/2000/svg" xmlns:xlink="http://www.w3.org/1999/xlink" x="0px" y="0px"
	 width="56px" height="37px" viewBox="0 0 56 37" enable-background="new 0 0 56 37" xml:space="preserve">
<g>
	<g>
		<path d="M21.6,16.2c-0.2-0.3-0.6-0.1-0.6,0.2v11.2h1v-9.2l6.9,9.4c0.2,0.3,0.6,0.1,0.6-0.2v-11h-1v9L21.6,16.2z"/>
		<path d="M32.7,16.7c0,1.3,1.1,2.3,2.3,2.3c1.3,0,2.3-1,2.3-2.3c0-1.3-1.1-2.3-2.3-2.3
			C33.7,14.4,32.7,15.5,32.7,16.7z M36.3,16.7c0,0.7-0.6,1.3-1.3,1.3c-0.7,0-1.3-0.6-1.3-1.3c0-0.7,0.6-1.3,1.3-1.3
			C35.7,15.4,36.3,16,36.3,16.7z"/>
		<path d="M56,4.5c0.1-1.3-1-2.4-2.2-2.4l-0.1,0c-1.3,0-2.3,1-2.3,2.2c0,1,0.5,1.8,1.3,2.2c-2.3,1.2-7,2.9-13.5,2.7
			c-0.7-0.3-1.4-0.6-2.1-0.8c7.1-1,11-4.1,11.2-4.2l0,0c0.5-0.4,0.9-1,0.9-1.7c0.1-1.3-1-2.4-2.2-2.4l-0.1,0c-1.3,0-2.3,1-2.3,2.2
			c0,1,0.6,1.9,1.4,2.2c-2.3,1.3-6.9,3.2-13.4,3.2C32.2,7.7,0,7.9,0,28.3v0.9l0.8-0.4c7.8-4.5,15.7-1.3,17.2-0.6
			c2.3,4.9,7.4,8.5,13.6,8.8l0.5,0v-8.9h3c2.1,0,3.7-1.7,3.7-3.7s-1.7-3.7-3.7-3.7h-4v15.3c-7.6-0.7-13.4-6.6-13.4-13.6
			c0-7.5,6.7-13.6,15-13.6s15,6.7,15,14.9c0,1.2-0.1,2.4-0.4,3.6h-5.6v-11h-1v12h7.3l0.1-0.4c0.4-1.4,0.6-2.8,0.6-4.3
			c0-5.6-3-10.6-7.4-13.4c8.4-0.2,13.3-3.5,13.8-3.8C55.5,5.9,56,5.3,56,4.5z M32,21.7h3c1.5,0,2.7,1.2,2.7,2.7s-1.2,2.7-2.7,2.7h-3
			V21.7z M46.8,3.7c-0.7,0-1.3-0.7-1.3-1.4c0-0.7,0.6-1.3,1.4-1.3c0,0,0,0,0,0c0.7,0,1.3,0.7,1.3,1.4C48.2,3.1,47.6,3.7,46.8,3.7
			L46.8,3.7z M16.6,22.4c0,1.6,0.3,3.1,0.8,4.5c-2.7-1.1-9.5-2.9-16.3,0.6C1.7,14.7,16.2,10.6,25.3,9.3
			C20.1,11.7,16.6,16.7,16.6,22.4z M53.6,5.7c-0.7,0-1.3-0.7-1.3-1.4c0-0.7,0.6-1.3,1.4-1.3c0,0,0,0,0,0c0.7,0,1.3,0.7,1.3,1.4
			C55,5.1,54.4,5.7,53.6,5.7L53.6,5.7z"/>
	</g>
</g>
<g>
</g>
<g>
</g>
<g>
</g>
<g>
</g>
<g>
</g>
</svg>
