<?xml version="1.0" encoding="utf-8"?>
<!-- Generator: Adobe Illustrator 18.0.0, SVG Export Plug-In . SVG Version: 6.00 Build 0)  -->
<!DOCTYPE svg PUBLIC "-//W3C//DTD SVG 1.1//EN" "http://www.w3.org/Graphics/SVG/1.1/DTD/svg11.dtd">
<svg version="1.1" id="Layer_1" xmlns="http://www.w3.org/2000/svg" xmlns:xlink="http://www.w3.org/1999/xlink" x="0px" y="0px"
	 width="21.1px" height="21px" viewBox="0 0 21.1 21" enable-background="new 0 0 21.1 21" xml:space="preserve">
<path d="M21.1,6.4C20.4,0.2,15.2,0,14.6,0H6.5C5.9,0,0.7,0.2,0,6.4c0,0.1,0,0.3,0.1,0.3s0.2,0.2,0.3,0.1l5.4-0.1
	c0.3,0,0.4-0.2,0.4-0.4c0-0.7,0.3-2.6,1.2-2.6h5.7c0.9,0,1.2,1.9,1.2,2.6c0,0.3,0.2,0.4,0.4,0.4l5.4,0.2c0.1,0,0.3,0,0.3-0.1
	C21.1,6.7,21.1,6.5,21.1,6.4z M19.9,14.7v-0.2l-6.3-7V6.4c0-0.4-0.3-0.8-0.8-0.8S12,5.9,12,6.4v1.1H9.2V6.4c0-0.4-0.3-0.8-0.8-0.8
	S7.6,5.9,7.6,6.4v1.1l-6.2,7v4.1c0,0.3,0.2,0.5,0.5,0.5H3v1.1C3,20.6,3.3,21,3.8,21s0.8-0.3,0.8-0.8v-1.1H17v1.1
	c0,0.4,0.3,0.8,0.8,0.8s0.8-0.3,0.8-0.8v-1.1h1.1c0.3,0,0.5-0.2,0.5-0.5v-3.9C19.9,14.8,19.9,14.8,19.9,14.7L19.9,14.7z M6.9,13.7
	c0-0.3,0.3-0.6,0.6-0.6s0.6,0.3,0.6,0.6s-0.3,0.6-0.6,0.6S6.9,14,6.9,13.7z M8.9,16.3c-0.3,0.3-0.6,0.3-0.9,0s-0.3-0.6,0-0.9
	c0.3-0.3,0.6-0.3,0.9,0C9.1,15.6,9.1,16,8.9,16.3z M8.9,12c-0.3,0.3-0.6,0.3-0.9,0s-0.3-0.6,0-0.9c0.3-0.3,0.6-0.3,0.9,0
	C9.1,11.4,9.1,11.8,8.9,12z M10.6,10.1c0.3,0,0.6,0.3,0.6,0.6s-0.3,0.6-0.6,0.6S10,11,10,10.7C10,10.3,10.3,10.1,10.6,10.1z
	 M10.6,17.3c-0.3,0-0.6-0.3-0.6-0.6s0.3-0.6,0.6-0.6s0.6,0.3,0.6,0.6S10.9,17.3,10.6,17.3z M10.6,15c-0.7,0-1.2-0.5-1.2-1.2
	s0.6-1.2,1.2-1.2s1.2,0.5,1.2,1.2C11.8,14.4,11.3,15,10.6,15z M12.3,11.1c0.3-0.3,0.6-0.3,0.9,0s0.3,0.6,0,0.9
	c-0.3,0.3-0.6,0.3-0.9,0C12.1,11.8,12.1,11.4,12.3,11.1z M13.2,16.3c-0.3,0.3-0.6,0.3-0.9,0s-0.3-0.6,0-0.9c0.3-0.3,0.6-0.3,0.9,0
	C13.5,15.6,13.5,16,13.2,16.3z M13.7,14.3c-0.3,0-0.6-0.3-0.6-0.6s0.3-0.6,0.6-0.6s0.6,0.3,0.6,0.6S14,14.3,13.7,14.3z"/>
<g>
</g>
<g>
</g>
<g>
</g>
<g>
</g>
<g>
</g>
</svg>
